inDegrees=no
num_controls=7
num_derivatives=13
num_iterations=122
num_multipliers=7
num_parameters=0
num_slacks=7
num_states=26
objective=0.516807
objective_accelerations=0.039730
objective_balance=0.002319
objective_effort=0.044569
objective_height=0.418528
objective_ligament=0.011661
solver_duration=1613.896023
status=Solve_Succeeded
success=true
DataType=double
version=3
OpenSimVersion=4.5
endheader
time	/jointset/ground_pelvis/pelvis_tilt/value	/jointset/ground_pelvis/pelvis_tx/value	/jointset/ground_pelvis/pelvis_ty/value	/jointset/hip_l/hip_flexion_l/value	/jointset/hip_l/hip_adduction_l/value	/jointset/hip_l/hip_rotation_l/value	/jointset/back/lumbar_extension/value	/jointset/patellofemoral_l/patellar_flexion_l/value	/jointset/knee_l/knee_flexion_l/value	/jointset/knee_l/knee_adduction_l/value	/jointset/knee_l/knee_rotation_l/value	/jointset/ankle_l/ankle_angle_l/value	/jointset/subtalar_l/subtalar_angle_l/value	/jointset/ground_pelvis/pelvis_tilt/speed	/jointset/ground_pelvis/pelvis_tx/speed	/jointset/ground_pelvis/pelvis_ty/speed	/jointset/hip_l/hip_flexion_l/speed	/jointset/hip_l/hip_adduction_l/speed	/jointset/hip_l/hip_rotation_l/speed	/jointset/back/lumbar_extension/speed	/jointset/patellofemoral_l/patellar_flexion_l/speed	/jointset/knee_l/knee_flexion_l/speed	/jointset/knee_l/knee_adduction_l/speed	/jointset/knee_l/knee_rotation_l/speed	/jointset/ankle_l/ankle_angle_l/speed	/jointset/subtalar_l/subtalar_angle_l/speed	/forceset/tau_hip_flexion_l	/forceset/tau_hip_adduction_l	/forceset/tau_hip_rotation_l	/forceset/tau_knee_flexion_l	/forceset/tau_ankle_angle_l	/forceset/tau_subtalar_angle_l	/forceset/tau_lumbar_extension	lambda_cid13_p0	lambda_cid13_p1	lambda_cid13_p2	lambda_cid13_p3	lambda_cid13_p4	lambda_cid13_p5	lambda_cid14_p0	/jointset/ground_pelvis/pelvis_tilt/accel	/jointset/ground_pelvis/pelvis_tx/accel	/jointset/ground_pelvis/pelvis_ty/accel	/jointset/hip_l/hip_flexion_l/accel	/jointset/hip_l/hip_adduction_l/accel	/jointset/hip_l/hip_rotation_l/accel	/jointset/back/lumbar_extension/accel	/jointset/patellofemoral_l/patellar_flexion_l/accel	/jointset/knee_l/knee_flexion_l/accel	/jointset/knee_l/knee_adduction_l/accel	/jointset/knee_l/knee_rotation_l/accel	/jointset/ankle_l/ankle_angle_l/accel	/jointset/subtalar_l/subtalar_angle_l/accel	gamma_cid13_p0	gamma_cid13_p1	gamma_cid13_p2	gamma_cid13_p3	gamma_cid13_p4	gamma_cid13_p5	gamma_cid14_p0
1.5	-0.02302092449476347	-0.03061218616350189	0.8675192606865241	0.6445269237655756	-0.312054344803921	-0.1796656887717867	-0.7849868230571915	0.6328220209563999	0.6328220209564015	-0.1088210311656361	-0.1744689797169171	0.05902609220483879	0.002310754397648948	0.4102873652859661	0.2900122525770001	0.3474809784947989	-1.898084051141877	0.09401346189306196	-0.5311297923348951	0.8405379850141256	-1.622801762602142	-1.622801762601982	-0.125081003305736	-0.0001538280257119484	-0.2211843593092968	0.03122582483382912	-0.2097245076446536	0.01441227479907402	-0.00372225525884969	-0.188413339031061	0.1044141976582934	0.04609379978016733	0.2832208510096242	-9.121988085799423	-20.45414951874212	5.128597262399681	-9.268350774692118	-672.9650044688655	-80.55572030136942	-20.11966407952035	0.009222805638666317	0.6504483678252007	-0.4994819095565802	-0.6595471555140452	0.3207994688180685	-0.2325650237469493	1.758126527651881	-0.6174121721566127	-0.6174121721565543	-0.2693074055049768	0.02287644374479167	0.06114231887716977	0.3496695068797168	-4.675542651932743e-09	9.614054938531377e-07	1.681547667969667e-07	1.531170788959613e-07	7.875007147299293e-08	1.123746908454203e-07	9.326067312852633e-08
1.51	-0.01891805878075028	-0.02767982318973998	0.8709684339359985	0.6255151626730037	-0.3110986467871075	-0.1849896790482116	-0.7764946896682752	0.6165651856606564	0.6165651856606222	-0.1100853049476272	-0.1744711115152467	0.0568176078516754	0.002640080504269669	0.4102304316730561	0.2964286667996636	0.3422885460622488	-1.904032734758441	0.09711502600774602	-0.5336101761129467	0.8577794223653419	-1.628350552403664	-1.628350552403393	-0.1277783308803963	-0.000271274000081982	-0.2204666202138565	0.03464063696568502	-0.2021610764694088	0.01357476641561568	-0.003693373326084262	-0.1857827418044023	0.1036658291549718	0.04524857324711411	0.2762298606671123	-9.165969656105688	-20.13155727255198	5.136781353484911	-9.007090846796538	-669.2125197739609	-80.51474263918296	-20.57981533257989	-0.02146327538713545	0.6325191198786771	-0.5388779660759445	-0.5272261437235867	0.3029965524209225	-0.2469872134897715	1.690761778260042	-0.4914190089941806	-0.4914190089775166	-0.2704416403749863	-0.02885180101884049	0.08399929324193274	0.3373884151136132	-1.301100818193494e-08	9.965876228588858e-07	1.957174305231577e-07	1.592329395321068e-07	7.543254495941343e-08	1.141481523018706e-07	9.1921800135033e-08
1.52	-0.01481742476899296	-0.02468423983967308	0.8743637320499532	0.6064509753084671	-0.3101123007952211	-0.1903367155941511	-0.7678334200179658	0.6002593011419198	0.6002593011418677	-0.1113766512467394	-0.1744743771099327	0.05461768280713893	0.003003555001963987	0.4098410248348989	0.3026563278379978	0.336705951390831	-1.908569305534842	0.1001430569075275	-0.5357390462372209	0.8743652372927007	-1.632611607198953	-1.632611607198571	-0.130495506732196	-0.0003805872940881849	-0.2194724975838373	0.03805550304854404	-0.1945976452941658	0.01273725803214686	-0.003664491393187676	-0.1831521445777525	0.1029174606516459	0.04440334671404865	0.2692388703246031	-9.21598546446347	-19.80782815256962	5.144692379478214	-8.74764017013848	-665.5618667065329	-80.49072091151224	-21.01590087868995	-0.05727183941080842	0.6126977309593443	-0.5775143573301139	-0.3771245874814423	0.3060928258375551	-0.1622622929915022	1.627002042880332	-0.3598651709099797	-0.3598651709099812	-0.273277060932845	0.02450297981754818	0.1164190257929703	0.3496802970803443	-9.760347386911615e-09	9.979950026042344e-07	1.65589648638185e-07	1.547147710575466e-07	8.305884959920988e-08	1.221959758413049e-07	9.466274101610642e-08
1.53	-0.01072232912401029	-0.02162738300826643	0.8777013090219157	0.5873484425413199	-0.3090961578309521	-0.1957027492936624	-0.7590097711408076	0.5839172137682316	0.5839172137682166	-0.112695729995911	-0.1744782963189523	0.05242903432726276	0.003401035192757294	0.4091229750314614	0.3086769125237552	0.330749397393452	-1.911697989790069	0.1030670850681679	-0.5373865440180945	0.8902358772084408	-1.635586922528067	-1.635586922527679	-0.1333389103755033	-0.0003843772529193995	-0.2182125710135863	0.04143357571481194	-0.1868646237085112	0.01178387018511386	-0.003688062103745244	-0.180696473748711	0.1023463485714474	0.04347131310288335	0.2620937688907783	-9.218040574966231	-19.45177146567259	5.143994381429337	-8.472220067945667	-661.9752437804258	-80.42838952107967	-21.42516418614905	-0.0873475757351129	0.5910460355656246	-0.6137102380225451	-0.2448591419022609	0.2826509236117883	-0.1537318012099159	1.547795826315785	-0.2335440676897443	-0.2335440676887674	-0.292504023335571	-0.01000766611085679	0.1374971513677956	0.3306746634843764	5.800572628451188e-09	9.635167112604092e-07	7.416576829135158e-08	1.388979466528616e-07	1.023129748394682e-07	1.369103090939095e-07	1.017384841389069e-07
